<svg width="327" height="168" viewBox="0 0 327 168" fill="none" xmlns="http://www.w3.org/2000/svg">
<g clip-path="url(#clip0_530_1074)">
<rect width="327" height="144" rx="16" fill="url(#paint0_linear_530_1074)"/>
<path fill-rule="evenodd" clip-rule="evenodd" d="M146.504 83.2579C151.916 25.1782 197.426 -20.3317 255.547 -25.7188C260.382 -26.1677 272.889 -26.0555 277.934 -25.5504C287.656 -24.5403 302.212 -21.1173 308.098 -18.4798L309.832 -17.6942L298.429 7.67008C296.05 12.9858 293.473 18.7237 291.031 24.1611L291.013 24.2019L291.007 24.2152C287.04 33.0491 283.432 41.0826 281.612 45.2115C274.203 61.7656 271.523 65.357 266.425 65.357C262.957 65.357 260.329 63.7297 255.389 58.6792C243.198 46.1654 231.899 42.574 221.336 47.9612C210.248 53.6288 205.676 65.6937 209.828 78.3197C215.24 94.5933 236.261 111.035 259.909 117.432C264.901 118.779 266.478 118.948 274.465 118.948C281.875 118.891 284.187 118.723 287.866 117.713C297.768 115.017 306.13 110.03 314.008 102.048L355.9 20.3112C356.958 17.998 357.674 16.5364 357.759 16.5364C358.337 16.5364 365.484 26.4688 368.637 31.5754C392.022 69.734 391.759 119.396 368.006 157.387C348.457 188.643 316.874 208.733 280.194 213.278C270.524 214.513 255.179 214.12 245.825 212.436C233.318 210.136 222.913 206.712 211.772 201.101C168.207 179.272 141.984 131.91 146.504 83.2579Z" fill="#2163C1"/>
<path fill-rule="evenodd" clip-rule="evenodd" d="M-54.4963 102.258C-49.0835 44.1782 -3.57433 -1.33166 54.5471 -6.71876C59.3818 -7.16769 71.8889 -7.05546 76.9338 -6.55042C86.6557 -5.54034 101.212 -2.11728 107.098 0.520155L108.832 1.30577L97.4287 26.6701C95.0497 31.9858 92.4729 37.7237 90.0311 43.1611L90.0127 43.2019L90.0068 43.2152C86.0396 52.0491 82.432 60.0826 80.6124 64.2115C73.2027 80.7656 70.5226 84.357 65.4251 84.357C61.9568 84.357 59.3292 82.7297 54.3894 77.6792C42.1976 65.1654 30.8991 61.574 20.3364 66.9612C9.24812 72.6288 4.67617 84.6937 8.8277 97.3197C14.2405 113.593 35.2609 130.035 58.9088 136.432C63.9012 137.779 65.4777 137.948 73.4655 137.948C80.8751 137.891 83.1874 137.723 86.866 136.713C96.7675 134.017 105.13 129.03 113.008 121.048L154.9 39.3112C155.958 36.998 156.674 35.5364 156.759 35.5364C157.337 35.5364 164.484 45.4688 167.637 50.5754C191.022 88.734 190.759 138.396 167.006 176.387C147.457 207.643 115.874 227.733 79.1935 232.278C69.5241 233.513 54.1792 233.12 44.8251 231.436C32.318 229.136 21.9129 225.712 10.7721 220.101C-32.7927 198.272 -59.0156 150.91 -54.4963 102.258Z" fill="#2163C1"/>
<path fill-rule="evenodd" clip-rule="evenodd" d="M246.504 20.2579C251.916 -37.8218 297.426 -83.3317 355.547 -88.7188C360.382 -89.1677 372.889 -89.0555 377.934 -88.5504C387.656 -87.5403 402.212 -84.1173 408.098 -81.4798L409.832 -80.6942L398.429 -55.3299C396.05 -50.0142 393.473 -44.2763 391.031 -38.8389L391.013 -38.7981L391.007 -38.7848C387.04 -29.9509 383.432 -21.9174 381.612 -17.7885C374.203 -1.23438 371.523 2.35703 366.425 2.35703C362.957 2.35703 360.329 0.72966 355.389 -4.32076C343.198 -16.8346 331.899 -20.426 321.336 -15.0388C310.248 -9.37116 305.676 2.69372 309.828 15.3197C315.24 31.5933 336.261 48.0352 359.909 54.4324C364.901 55.7792 366.478 55.9475 374.465 55.9475C381.875 55.8914 384.187 55.7231 387.866 54.713C397.768 52.0168 406.13 47.0296 414.008 39.0476L455.9 -42.6888C456.958 -45.002 457.674 -46.4636 457.759 -46.4636C458.337 -46.4636 465.484 -36.5312 468.637 -31.4246C492.022 6.73405 491.759 56.3965 468.006 94.3868C448.457 125.643 416.874 145.733 380.194 150.278C370.524 151.513 355.179 151.12 345.825 149.436C333.318 147.136 322.913 143.712 311.772 138.101C268.207 116.272 241.984 68.9102 246.504 20.2579Z" fill="#6193D5"/>
</g>
<defs>
<linearGradient id="paint0_linear_530_1074" x1="27" y1="28.5" x2="336.5" y2="162.5" gradientUnits="userSpaceOnUse">
<stop stop-color="#003EB0"/>
<stop offset="0.635437" stop-color="#005AC0" stop-opacity="0.75"/>
<stop offset="0.788521" stop-color="#008ADB" stop-opacity="0.313433"/>
<stop offset="1" stop-color="#00ADEF" stop-opacity="0"/>
</linearGradient>
<clipPath id="clip0_530_1074">
<rect width="327" height="168" rx="16" fill="white"/>
</clipPath>
</defs>
</svg>